<svg width="32" height="32" viewBox="0 0 32 32" fill="none" xmlns="http://www.w3.org/2000/svg">
<path fill-rule="evenodd" clip-rule="evenodd" d="M27.542 5.4974L19.4833 0.907177C18.4793 0.336764 17.3503 0.0251779 16.1972 0.000295788H16.1314H16.0152C14.79 -0.0110063 13.5835 0.301764 12.5167 0.907177L4.45804 5.4974C3.41275 6.08713 2.5419 6.94501 1.93438 7.9835C1.32686 9.02198 1.00443 10.2039 1 11.4085V20.5889C1.00443 21.7936 1.32686 22.9755 1.93438 24.014C2.5419 25.0525 3.41275 25.9103 4.45804 26.5001L12.5167 31.0928C13.5212 31.6622 14.6499 31.9737 15.8028 31.9997H15.9848C17.21 32.011 18.4165 31.6982 19.4833 31.0928L27.542 26.5026C28.5873 25.9129 29.4581 25.055 30.0656 24.0165C30.6731 22.978 30.9956 21.7961 31 20.5915V11.4085C30.9953 10.2039 30.6728 9.02212 30.0653 7.98368C29.4578 6.94524 28.5871 6.08733 27.542 5.4974Z" fill="url(#paint0_linear_1640_23691)"/>
<path d="M18.1605 15.1634L19.6292 12.6713L23.588 18.8373L23.5899 20.0203L23.5769 11.8776C23.5723 11.7794 23.5441 11.6837 23.4947 11.5987C23.4454 11.5137 23.3763 11.4418 23.2933 11.389L16.166 7.28956C16.0808 7.2491 15.9877 7.22832 15.8934 7.22877C15.7991 7.22921 15.7061 7.25087 15.6214 7.29213C15.5994 7.30315 15.5781 7.31548 15.5575 7.32904L15.5327 7.34472L8.61437 11.3537L8.58744 11.3658C8.55158 11.3824 8.51736 11.4024 8.48524 11.4254C8.3555 11.518 8.26707 11.6577 8.23882 11.8146C8.23449 11.8384 8.23154 11.8625 8.22998 11.8866L8.24081 18.522L11.9282 12.8067C12.3925 12.0489 13.404 11.8048 14.3429 11.818L15.4449 11.8465L8.95145 22.2601L9.71695 22.7008L16.2883 11.857L19.1928 11.8464L12.6385 22.9634L15.3701 24.5355L15.6965 24.7232C15.8373 24.7792 15.9936 24.7822 16.1365 24.7319L23.364 20.5435L21.9815 21.3442L18.1605 15.1634ZM18.7209 23.2342L15.9622 18.9044L17.6461 16.0469L21.2691 21.7574L18.7209 23.2342Z" fill="#2D374B"/>
<path d="M15.9624 18.9044L18.7211 23.234L21.2695 21.7572L17.6466 16.0469L15.9624 18.9044Z" fill="#28A0F0"/>
<path d="M23.5904 20.0203L23.5885 18.8373L19.6297 12.6714L18.1602 15.1632L21.9819 21.344L23.3644 20.5432C23.4313 20.489 23.486 20.4212 23.525 20.3444C23.564 20.2675 23.5863 20.1833 23.5905 20.0973L23.5904 20.0203Z" fill="#28A0F0"/>
<path d="M7.00049 21.1363L8.95181 22.2607L15.4453 11.8471L14.3433 11.8186C13.4043 11.8054 12.3928 12.0494 11.9286 12.8073L8.24118 18.5226L7.0012 20.4286V21.1368L7.00049 21.1363Z" fill="white"/>
<path d="M19.1935 11.8472L16.2891 11.8577L9.71777 22.7015L12.0146 24.024L12.6391 22.9646L19.1935 11.8472Z" fill="white"/>
<path d="M24.8139 11.8322C24.8006 11.5324 24.7146 11.2404 24.5633 10.9813C24.412 10.7222 24.2 10.5038 23.9455 10.3449L16.7248 6.19254C16.4671 6.06587 16.1837 6 15.8965 6C15.6093 6 15.3259 6.06587 15.0681 6.19254C15.0078 6.2229 8.04614 10.2605 8.04614 10.2605C7.94942 10.307 7.8569 10.3617 7.76964 10.4241C7.54359 10.5849 7.3569 10.7948 7.2236 11.038C7.0903 11.2813 7.01385 11.5516 7 11.8286V20.4283L8.23998 18.5223L8.23043 11.8872C8.23623 11.7962 8.26213 11.7076 8.30627 11.6279C8.35041 11.5481 8.41169 11.4792 8.48569 11.426C8.51847 11.4024 15.599 7.30396 15.6215 7.2927C15.7063 7.25144 15.7993 7.22978 15.8935 7.22934C15.9878 7.22889 16.081 7.24967 16.1661 7.29013L23.2934 11.3899C23.3764 11.4426 23.4455 11.5145 23.4949 11.5996C23.5443 11.6846 23.5724 11.7803 23.5771 11.8785V20.0982C23.5753 20.1835 23.5554 20.2673 23.5187 20.3442C23.482 20.4211 23.4292 20.4893 23.364 20.5442L21.9815 21.3449L21.2689 21.7582L18.7205 23.2351L16.1361 24.7329C15.9932 24.7833 15.8369 24.7802 15.6961 24.7242L12.6385 22.9656L12.0139 24.0248L14.7618 25.6069C14.8528 25.6585 14.9337 25.7044 15.0001 25.7417C15.103 25.7987 15.1732 25.8379 15.1978 25.8499C15.4277 25.9506 15.6763 26.0018 15.9273 26C16.1575 26.0003 16.3857 25.9574 16.6 25.8734L24.1064 21.5263C24.3182 21.3616 24.4913 21.1524 24.6134 20.9136C24.7356 20.6747 24.804 20.412 24.8136 20.1438L24.8139 11.8322Z" fill="#96BEDC"/>
<defs>
<linearGradient id="paint0_linear_1640_23691" x1="7" y1="-8" x2="-6.51892" y2="7.69184" gradientUnits="userSpaceOnUse">
<stop stop-color="#28A0F0"/>
<stop offset="1" stop-color="#384F7E"/>
</linearGradient>
</defs>
</svg>
